<?xml version="1.0" encoding="UTF-8"?>
<svg id="Layer_1" xmlns="http://www.w3.org/2000/svg" xmlns:xlink="http://www.w3.org/1999/xlink" version="1.1" viewBox="0 0 2000 1000">
  <!-- Generator: Adobe Illustrator 29.3.0, SVG Export Plug-In . SVG Version: 2.1.0 Build 146)  -->
  <defs>
    <style>
      .st0 {
        fill: none;
      }

      .st1 {
        fill: url(#linear-gradient2);
      }

      .st2 {
        fill: url(#linear-gradient1);
      }

      .st3 {
        fill: url(#linear-gradient9);
      }

      .st4 {
        fill: url(#linear-gradient3);
      }

      .st5 {
        fill: url(#linear-gradient6);
      }

      .st6 {
        fill: url(#linear-gradient8);
      }

      .st7 {
        fill: url(#linear-gradient7);
      }

      .st8 {
        fill: url(#linear-gradient5);
      }

      .st9 {
        fill: url(#linear-gradient4);
      }

      .st10 {
        fill: url(#linear-gradient18);
      }

      .st11 {
        fill: url(#linear-gradient13);
      }

      .st12 {
        fill: url(#linear-gradient12);
      }

      .st13 {
        fill: url(#linear-gradient15);
      }

      .st14 {
        fill: url(#linear-gradient16);
      }

      .st15 {
        fill: url(#linear-gradient11);
      }

      .st16 {
        fill: url(#linear-gradient10);
      }

      .st17 {
        fill: url(#linear-gradient17);
      }

      .st18 {
        fill: url(#linear-gradient14);
      }

      .st19 {
        fill: url(#linear-gradient19);
      }

      .st20 {
        fill: url(#linear-gradient21);
      }

      .st21 {
        fill: url(#linear-gradient20);
      }

      .st22 {
        fill: url(#linear-gradient);
      }
    </style>
    <linearGradient id="linear-gradient" x1="488.31" y1="666.49" x2="544.25" y2="666.49" gradientTransform="translate(0 1000) scale(1 -1)" gradientUnits="userSpaceOnUse">
      <stop offset="0" stop-color="#548fe9"/>
      <stop offset="1" stop-color="#6a2dcd"/>
    </linearGradient>
    <linearGradient id="linear-gradient1" x1="543.49" y1="626.08" x2="590.03" y2="626.08" gradientTransform="translate(0 1000) scale(1 -1)" gradientUnits="userSpaceOnUse">
      <stop offset="0" stop-color="#548fe9"/>
      <stop offset="1" stop-color="#6a2dcd"/>
    </linearGradient>
    <linearGradient id="linear-gradient2" x1="637.96" y1="514.38" x2="750.95" y2="514.38" gradientTransform="translate(0 1000) scale(1 -1)" gradientUnits="userSpaceOnUse">
      <stop offset="0" stop-color="#548fe9"/>
      <stop offset="1" stop-color="#6a2dcd"/>
    </linearGradient>
    <linearGradient id="linear-gradient3" x1="769.52" y1="481.03" x2="887.45" y2="481.03" gradientTransform="translate(0 1000) scale(1 -1)" gradientUnits="userSpaceOnUse">
      <stop offset="0" stop-color="#548fe9"/>
      <stop offset="1" stop-color="#6a2dcd"/>
    </linearGradient>
    <linearGradient id="linear-gradient4" x1="902.01" y1="500.03" x2="1016.65" y2="500.03" gradientTransform="translate(0 1000) scale(1 -1)" gradientUnits="userSpaceOnUse">
      <stop offset="0" stop-color="#548fe9"/>
      <stop offset="1" stop-color="#6a2dcd"/>
    </linearGradient>
    <linearGradient id="linear-gradient5" x1="1030.29" y1="500.05" x2="1139.28" y2="500.05" gradientTransform="translate(0 1000) scale(1 -1)" gradientUnits="userSpaceOnUse">
      <stop offset="0" stop-color="#548fe9"/>
      <stop offset="1" stop-color="#6a2dcd"/>
    </linearGradient>
    <linearGradient id="linear-gradient6" x1="1164.18" y1="519.66" x2="1275.31" y2="519.66" gradientTransform="translate(0 1000) scale(1 -1)" gradientUnits="userSpaceOnUse">
      <stop offset="0" stop-color="#548fe9"/>
      <stop offset="1" stop-color="#6a2dcd"/>
    </linearGradient>
    <linearGradient id="linear-gradient7" x1="1294.1" y1="513.79" x2="1458.3" y2="513.79" gradientTransform="translate(0 1000) scale(1 -1)" gradientUnits="userSpaceOnUse">
      <stop offset="0" stop-color="#548fe9"/>
      <stop offset="1" stop-color="#6a2dcd"/>
    </linearGradient>
    <linearGradient id="linear-gradient8" x1="1475.71" y1="500.05" x2="1584.71" y2="500.05" gradientTransform="translate(0 1000) scale(1 -1)" gradientUnits="userSpaceOnUse">
      <stop offset="0" stop-color="#548fe9"/>
      <stop offset="1" stop-color="#6a2dcd"/>
    </linearGradient>
    <linearGradient id="linear-gradient9" x1="1609.62" y1="510.96" x2="1683.85" y2="510.96" gradientTransform="translate(0 1000) scale(1 -1)" gradientUnits="userSpaceOnUse">
      <stop offset="0" stop-color="#548fe9"/>
      <stop offset="1" stop-color="#6a2dcd"/>
    </linearGradient>
    <linearGradient id="linear-gradient10" x1="1696.76" y1="500.03" x2="1811.41" y2="500.03" gradientTransform="translate(0 1000) scale(1 -1)" gradientUnits="userSpaceOnUse">
      <stop offset="0" stop-color="#548fe9"/>
      <stop offset="1" stop-color="#6a2dcd"/>
    </linearGradient>
    <linearGradient id="linear-gradient11" x1="637.96" y1="514.38" x2="1811.42" y2="514.38" gradientTransform="translate(0 1000) scale(1 -1)" gradientUnits="userSpaceOnUse">
      <stop offset="0" stop-color="#6a2ecd"/>
      <stop offset="1" stop-color="#548fe9"/>
    </linearGradient>
    <linearGradient id="linear-gradient12" x1="637.95" y1="481.03" x2="1811.41" y2="481.03" gradientTransform="translate(0 1000) scale(1 -1)" gradientUnits="userSpaceOnUse">
      <stop offset="0" stop-color="#6a2ecd"/>
      <stop offset="1" stop-color="#548fe9"/>
    </linearGradient>
    <linearGradient id="linear-gradient13" x1="637.95" y1="500.03" x2="1811.41" y2="500.03" gradientTransform="translate(0 1000) scale(1 -1)" gradientUnits="userSpaceOnUse">
      <stop offset="0" stop-color="#6a2ecd"/>
      <stop offset="1" stop-color="#548fe9"/>
    </linearGradient>
    <linearGradient id="linear-gradient14" x1="637.95" y1="500.05" x2="1811.41" y2="500.05" gradientTransform="translate(0 1000) scale(1 -1)" gradientUnits="userSpaceOnUse">
      <stop offset="0" stop-color="#6a2ecd"/>
      <stop offset="1" stop-color="#548fe9"/>
    </linearGradient>
    <linearGradient id="linear-gradient15" x1="637.95" y1="519.66" x2="1811.41" y2="519.66" gradientTransform="translate(0 1000) scale(1 -1)" gradientUnits="userSpaceOnUse">
      <stop offset="0" stop-color="#6a2ecd"/>
      <stop offset="1" stop-color="#548fe9"/>
    </linearGradient>
    <linearGradient id="linear-gradient16" x1="637.95" y1="513.79" x2="1811.41" y2="513.79" gradientTransform="translate(0 1000) scale(1 -1)" gradientUnits="userSpaceOnUse">
      <stop offset="0" stop-color="#6a2ecd"/>
      <stop offset="1" stop-color="#548fe9"/>
    </linearGradient>
    <linearGradient id="linear-gradient17" x1="637.95" y1="500.05" x2="1811.41" y2="500.05" gradientTransform="translate(0 1000) scale(1 -1)" gradientUnits="userSpaceOnUse">
      <stop offset="0" stop-color="#6a2ecd"/>
      <stop offset="1" stop-color="#548fe9"/>
    </linearGradient>
    <linearGradient id="linear-gradient18" x1="637.95" y1="510.96" x2="1811.41" y2="510.96" gradientTransform="translate(0 1000) scale(1 -1)" gradientUnits="userSpaceOnUse">
      <stop offset="0" stop-color="#6a2ecd"/>
      <stop offset="1" stop-color="#548fe9"/>
    </linearGradient>
    <linearGradient id="linear-gradient19" x1="637.95" y1="500.03" x2="1811.41" y2="500.03" gradientTransform="translate(0 1000) scale(1 -1)" gradientUnits="userSpaceOnUse">
      <stop offset="0" stop-color="#6a2ecd"/>
      <stop offset="1" stop-color="#548fe9"/>
    </linearGradient>
    <linearGradient id="linear-gradient20" x1="173.04" y1="485.52" x2="573.46" y2="485.52" gradientTransform="translate(0 1000) scale(1 -1)" gradientUnits="userSpaceOnUse">
      <stop offset="0" stop-color="#548fe9"/>
      <stop offset="1" stop-color="#6a2dcd"/>
    </linearGradient>
    <linearGradient id="linear-gradient21" x1="335.05" y1="573.15" x2="345.94" y2="573.15" gradientTransform="translate(0 1000) scale(1 -1)" gradientUnits="userSpaceOnUse">
      <stop offset="0" stop-color="#548fe9"/>
      <stop offset="1" stop-color="#5a74e1"/>
    </linearGradient>
  </defs>
  <path class="st22" d="M544.22,334.86c.2.97-.76.7-1.46.88-5.29,1.34-14.89,2.11-19.09,5.84-3.76,3.34-5.78,12.5-6.89,17.36-.38,1.64.44,4.17-1.52,4.88-.67-5.62-2.61-16.67-6.37-20.91-4.88-5.5-14.22-5.34-20.58-7.71,8.94-2.51,19.06-2.2,23.23-11.8,2.75-6.31,3.44-13.41,4.06-20.2,1.72,7.37,2.49,22.55,9.73,26.64,5.27,2.98,12.91,4.17,18.89,5.02h0Z"/>
  <path class="st2" d="M590.03,373.93c-.28,1.33-1.38,1.15-2.36,1.33-16.16,3.05-19.9,6.2-21.21,23.58-1.33-.28-1.15-1.37-1.33-2.36-1.22-6.51-1.89-14.61-8.31-17.96-3.71-1.94-9.03-3.17-13.25-3.25-.55-2.11,2.45-1.24,4.07-1.64,3.58-.89,10.36-2.7,12.77-5.41,4.12-4.64,3.86-13.59,5.72-19.21,1.63,8.21,1.59,18.21,10.28,22.05,4,1.77,9.24,2.69,13.62,2.88h0Z"/>
  <g>
    <g>
      <path class="st1" d="M684.23,500.31c-6.89-2.35-13.16-4.74-18.79-7.17-5.64-2.43-10.49-5.36-14.57-8.81-4.07-3.44-7.24-7.55-9.51-12.34-2.27-4.78-3.4-10.61-3.4-17.5,0-13.31,5.13-23.96,15.39-31.95,10.26-7.99,24.62-11.99,43.11-11.99,6.73,0,13,.47,18.79,1.41s10.77,2.39,14.92,4.35,7.4,4.47,9.75,7.52,3.52,6.62,3.52,10.69-.94,7.56-2.82,10.45c-1.88,2.9-4.15,5.36-6.81,7.4-3.44-2.19-8.07-4.11-13.86-5.76-5.79-1.64-12.14-2.46-19.03-2.46s-12.22.98-15.51,2.93c-3.29,1.96-4.94,4.43-4.94,7.4,0,2.35,1.01,4.27,3.05,5.76s5.09,2.86,9.16,4.12l12.45,4c14.72,4.7,26.04,10.69,33.94,17.97s11.87,17.19,11.87,29.72c0,13.31-5.25,24.08-15.74,32.3s-25.92,12.34-46.28,12.34c-7.21,0-13.9-.59-20.09-1.76-6.19-1.17-11.59-2.9-16.21-5.17-4.62-2.27-8.22-5.09-10.8-8.46s-3.87-7.24-3.87-11.62,1.33-8.41,4-11.63c2.67-3.21,5.56-5.67,8.69-7.4,4.38,3.44,9.75,6.42,16.09,8.93,6.34,2.51,13.28,3.75,20.79,3.75s13.07-1.17,16.21-3.52c3.13-2.35,4.7-5.09,4.7-8.22s-1.26-5.52-3.75-7.17c-2.51-1.64-6.03-3.25-10.57-4.82l-9.86-3.29h-.03Z"/>
      <path class="st4" d="M821.9,439.23c9.4,0,18.13,1.22,26.19,3.64,8.06,2.43,14.99,6.15,20.79,11.16,5.79,5.01,10.33,11.31,13.63,18.92,3.29,7.59,4.94,16.64,4.94,27.13s-1.41,18.79-4.23,26.31c-2.82,7.52-6.81,13.82-11.99,18.91s-11.39,8.89-18.67,11.4-15.39,3.75-24.31,3.75c-6.74,0-13-1.02-18.79-3.05v39c-1.57.47-4.07.97-7.52,1.53-3.44.54-6.97.82-10.57.82s-6.54-.23-9.28-.7-5.05-1.41-6.93-2.82-3.29-3.33-4.23-5.76c-.94-2.43-1.41-5.6-1.41-9.51v-112.77c0-4.23.9-7.67,2.7-10.33,1.8-2.67,4.27-5.09,7.4-7.28,4.85-3.13,10.89-5.64,18.09-7.52s15.27-2.82,24.2-2.82h0ZM822.38,528.97c16.13,0,24.2-9.63,24.2-28.9,0-10.02-1.99-17.46-5.99-22.32-4-4.85-9.75-7.28-17.27-7.28-2.98,0-5.64.35-7.99,1.06-2.35.7-4.38,1.53-6.11,2.46v51.69c1.88.94,3.91,1.73,6.11,2.35,2.19.63,4.54.94,7.05.94h0Z"/>
      <path class="st9" d="M967.32,560.69c-9.24,0-17.82-1.29-25.72-3.88-7.91-2.58-14.8-6.46-20.68-11.62-5.88-5.17-10.49-11.67-13.86-19.49-3.37-7.83-5.05-16.99-5.05-27.49s1.68-19.23,5.05-26.66,7.79-13.54,13.28-18.32c5.48-4.78,11.74-8.3,18.79-10.57s14.25-3.4,21.61-3.4c8.3,0,15.86,1.26,22.67,3.75,6.81,2.51,12.69,5.95,17.62,10.33,4.94,4.38,8.77,9.63,11.51,15.74s4.12,12.76,4.12,19.97c0,5.32-1.49,9.4-4.47,12.22-2.98,2.82-7.13,4.62-12.45,5.41l-58.03,8.69c1.72,5.17,5.25,9.04,10.57,11.63,5.32,2.58,11.43,3.87,18.32,3.87,6.42,0,12.49-.82,18.2-2.46,5.72-1.64,10.38-3.56,13.98-5.76,2.51,1.57,4.62,3.75,6.34,6.58,1.73,2.82,2.58,5.79,2.58,8.93,0,7.05-3.29,12.3-9.86,15.74-5.01,2.67-10.65,4.47-16.91,5.41-6.27.94-12.14,1.41-17.62,1.41l.02-.02ZM960.74,468.36c-3.75,0-7.02.63-9.75,1.88-2.74,1.26-4.97,2.86-6.7,4.82s-3.02,4.15-3.87,6.58c-.86,2.43-1.37,4.89-1.53,7.4l40.17-6.58c-.47-3.13-2.2-6.26-5.17-9.4s-7.37-4.7-13.16-4.7Z"/>
      <path class="st8" d="M1082.9,439.23c8.46,0,16.17.86,23.14,2.58,6.96,1.73,12.92,4.35,17.85,7.87,4.94,3.52,8.73,7.99,11.4,13.39,2.67,5.41,3.99,11.78,3.99,19.14v52.63c0,4.07-1.14,7.4-3.4,9.98-2.27,2.58-4.97,4.82-8.1,6.7-10.18,6.11-24.51,9.16-43,9.16-8.31,0-15.78-.79-22.44-2.35-6.65-1.57-12.37-3.91-17.15-7.05s-8.46-7.12-11.04-11.99c-2.58-4.85-3.87-10.49-3.87-16.91,0-10.8,3.21-19.11,9.63-24.9s16.37-9.4,29.84-10.8l30.78-3.29v-1.64c0-4.54-1.99-7.79-5.99-9.75s-9.75-2.93-17.27-2.93c-5.95,0-11.74.63-17.38,1.88-5.64,1.26-10.73,2.82-15.27,4.7-2.04-1.41-3.75-3.56-5.17-6.46-1.41-2.9-2.11-5.91-2.11-9.04,0-4.07.98-7.32,2.93-9.75,1.96-2.43,4.97-4.5,9.04-6.23,4.54-1.72,9.91-2.98,16.09-3.75,6.19-.78,12.02-1.17,17.5-1.17v-.02ZM1084.78,531.55c2.67,0,5.6-.27,8.81-.82,3.21-.54,5.6-1.29,7.17-2.23v-18.79l-16.91,1.41c-4.38.32-7.99,1.26-10.8,2.82-2.82,1.57-4.23,3.91-4.23,7.05s1.21,5.68,3.64,7.64c2.43,1.96,6.54,2.93,12.34,2.93h0Z"/>
      <path class="st5" d="M1275.31,536.25c-.79,7.37-2.93,13-6.46,16.91s-8.66,5.88-15.39,5.88c-5.01,0-9.48-1.22-13.39-3.64-3.91-2.43-8.15-6.54-12.69-12.34l-23.26-29.13v42.75c-1.73.31-4.27.74-7.64,1.29-3.37.54-6.78.82-10.22.82s-6.54-.23-9.28-.7c-2.74-.47-5.05-1.41-6.93-2.82s-3.33-3.33-4.35-5.76-1.53-5.6-1.53-9.51v-136.03c1.72-.47,4.27-.97,7.64-1.53,3.37-.54,6.77-.82,10.22-.82s6.54.23,9.28.7c2.74.47,5.05,1.41,6.93,2.82s3.33,3.33,4.35,5.76c1.01,2.43,1.53,5.6,1.53,9.51v62.02l40.41-41.34c8.14,0,14.68,1.8,19.61,5.41,4.94,3.6,7.4,8.15,7.4,13.63,0,2.35-.39,4.51-1.17,6.46-.79,1.96-1.99,3.96-3.64,5.99s-3.75,4.19-6.34,6.46c-2.58,2.27-5.6,4.89-9.04,7.87l-13.63,11.75,37.59,37.59h0Z"/>
      <path class="st7" d="M1395.59,521.92c-2.04,1.73-4.66,3.09-7.87,4.11-3.21,1.02-6.93,1.53-11.16,1.53-5.64,0-10.3-.7-13.98-2.11s-6.08-3.84-7.17-7.28c-4.38-13.78-7.99-24.94-10.8-33.47-2.82-8.53-5.01-16.01-6.58-22.44h-1.17c-.47,9.24-.82,17.66-1.06,25.25-.23,7.6-.39,15-.47,22.2-.08,7.21-.23,14.49-.47,21.85-.23,7.36-.59,15.51-1.06,24.43-2.04.79-4.7,1.44-7.99,1.99-3.29.54-6.58.82-9.86.82-6.89,0-12.25-1.1-16.09-3.29-3.84-2.2-5.76-6.19-5.76-11.99l6.81-119.82c1.25-2.04,4-4.23,8.22-6.58,4.23-2.35,10.18-3.52,17.85-3.52,8.3,0,14.8,1.29,19.49,3.88,4.7,2.58,8.14,6.77,10.33,12.57,1.41,3.75,2.93,8.07,4.58,12.92,1.64,4.85,3.29,9.86,4.94,15.04,1.64,5.17,3.24,10.3,4.82,15.39,1.57,5.09,2.98,9.67,4.23,13.75h1.17c3.75-13.16,7.52-25.88,11.27-38.18,3.75-12.3,7.2-22.59,10.33-30.89,2.35-1.25,5.36-2.31,9.04-3.18,3.68-.85,7.79-1.29,12.34-1.29,7.67,0,13.94,1.14,18.79,3.41,4.85,2.27,7.67,5.52,8.46,9.75.63,3.13,1.29,7.95,1.99,14.45.7,6.5,1.44,13.82,2.23,21.97.78,8.15,1.57,16.76,2.35,25.84.78,9.09,1.53,17.82,2.23,26.19.7,8.38,1.29,16.06,1.76,23.02.47,6.97.78,12.34.94,16.09-2.67,1.57-5.45,2.7-8.34,3.4-2.9.7-6.62,1.06-11.16,1.06-5.95,0-10.96-1.02-15.04-3.05-4.07-2.04-6.27-6.03-6.58-11.99-.94-17.07-1.53-32.42-1.76-46.05s-.59-25.06-1.06-34.3h-1.17c-1.57,6.11-3.84,13.79-6.81,23.02-2.98,9.24-6.58,21.07-10.8,35.48h0Z"/>
      <path class="st6" d="M1528.33,439.23c8.46,0,16.17.86,23.14,2.58,6.97,1.73,12.92,4.35,17.85,7.87,4.94,3.52,8.72,7.99,11.39,13.39,2.67,5.41,4,11.78,4,19.14v52.63c0,4.07-1.14,7.4-3.4,9.98-2.27,2.58-4.97,4.82-8.1,6.7-10.18,6.11-24.51,9.16-42.99,9.16-8.31,0-15.78-.79-22.44-2.35-6.65-1.57-12.37-3.91-17.15-7.05-4.78-3.13-8.46-7.12-11.04-11.99-2.58-4.85-3.88-10.49-3.88-16.91,0-10.8,3.21-19.11,9.63-24.9s16.37-9.4,29.84-10.8l30.78-3.29v-1.64c0-4.54-1.99-7.79-5.99-9.75s-9.75-2.93-17.27-2.93c-5.95,0-11.74.63-17.38,1.88-5.64,1.26-10.73,2.82-15.27,4.7-2.04-1.41-3.75-3.56-5.17-6.46-1.41-2.9-2.11-5.91-2.11-9.04,0-4.07.98-7.32,2.93-9.75,1.96-2.43,4.97-4.5,9.04-6.23,4.54-1.72,9.91-2.98,16.09-3.75,6.19-.78,12.02-1.17,17.5-1.17v-.02ZM1530.21,531.55c2.67,0,5.6-.27,8.81-.82,3.21-.54,5.6-1.29,7.17-2.23v-18.79l-16.91,1.41c-4.38.32-7.99,1.26-10.8,2.82-2.82,1.57-4.23,3.91-4.23,7.05s1.21,5.68,3.64,7.64c2.43,1.96,6.54,2.93,12.34,2.93h0Z"/>
      <path class="st3" d="M1649.08,517.7c0,4.07,1.29,6.97,3.88,8.69,2.58,1.73,6.23,2.58,10.92,2.58,2.35,0,4.78-.19,7.28-.59,2.51-.39,4.7-.9,6.58-1.53,1.41,1.73,2.62,3.65,3.65,5.76,1.01,2.11,1.53,4.66,1.53,7.64,0,5.95-2.23,10.8-6.7,14.57-4.47,3.75-12.34,5.64-23.61,5.64-13.78,0-24.4-3.13-31.83-9.4-7.44-6.26-11.16-16.44-11.16-30.54v-100.55c1.72-.47,4.19-.98,7.4-1.53s6.61-.82,10.22-.82c6.89,0,12.25,1.22,16.09,3.65s5.76,7.56,5.76,15.39v15.04h30.78c.94,1.73,1.84,3.88,2.7,6.46s1.29,5.45,1.29,8.57c0,5.48-1.22,9.44-3.64,11.87-2.43,2.43-5.68,3.64-9.75,3.64h-21.38v35.48-.02Z"/>
      <path class="st16" d="M1762.08,560.69c-9.24,0-17.82-1.29-25.72-3.88-7.91-2.58-14.8-6.46-20.68-11.62-5.88-5.17-10.49-11.67-13.86-19.49s-5.05-16.99-5.05-27.49,1.68-19.23,5.05-26.66,7.79-13.54,13.28-18.32c5.48-4.78,11.74-8.3,18.79-10.57s14.25-3.4,21.61-3.4c8.3,0,15.86,1.26,22.67,3.75,6.81,2.51,12.69,5.95,17.62,10.33,4.94,4.38,8.77,9.63,11.51,15.74,2.74,6.11,4.12,12.76,4.12,19.97,0,5.32-1.49,9.4-4.47,12.22-2.98,2.82-7.12,4.62-12.45,5.41l-58.02,8.69c1.72,5.17,5.25,9.04,10.57,11.63,5.32,2.58,11.43,3.87,18.32,3.87,6.42,0,12.49-.82,18.2-2.46,5.72-1.64,10.38-3.56,13.98-5.76,2.51,1.57,4.62,3.75,6.34,6.58,1.72,2.82,2.58,5.79,2.58,8.93,0,7.05-3.29,12.3-9.86,15.74-5.01,2.67-10.65,4.47-16.91,5.41-6.26.94-12.14,1.41-17.62,1.41v-.02ZM1755.5,468.36c-3.75,0-7.01.63-9.75,1.88-2.74,1.26-4.98,2.86-6.7,4.82-1.73,1.96-3.02,4.15-3.88,6.58s-1.37,4.89-1.53,7.4l40.17-6.58c-.47-3.13-2.2-6.26-5.17-9.4s-7.36-4.7-13.16-4.7h0Z"/>
    </g>
    <g>
      <path class="st15" d="M684.23,500.31c-6.89-2.35-13.16-4.74-18.79-7.17-5.64-2.43-10.49-5.36-14.57-8.81-4.07-3.44-7.24-7.55-9.51-12.34-2.27-4.78-3.4-10.61-3.4-17.5,0-13.31,5.13-23.96,15.39-31.95,10.26-7.99,24.62-11.99,43.11-11.99,6.73,0,13,.47,18.79,1.41s10.77,2.39,14.92,4.35,7.4,4.47,9.75,7.52,3.52,6.62,3.52,10.69-.94,7.56-2.82,10.45c-1.88,2.9-4.15,5.36-6.81,7.4-3.44-2.19-8.07-4.11-13.86-5.76-5.79-1.64-12.14-2.46-19.03-2.46s-12.22.98-15.51,2.93c-3.29,1.96-4.94,4.43-4.94,7.4,0,2.35,1.01,4.27,3.05,5.76s5.09,2.86,9.16,4.12l12.45,4c14.72,4.7,26.04,10.69,33.94,17.97s11.87,17.19,11.87,29.72c0,13.31-5.25,24.08-15.74,32.3s-25.92,12.34-46.28,12.34c-7.21,0-13.9-.59-20.09-1.76-6.19-1.17-11.59-2.9-16.21-5.17-4.62-2.27-8.22-5.09-10.8-8.46s-3.87-7.24-3.87-11.62,1.33-8.41,4-11.63c2.67-3.21,5.56-5.67,8.69-7.4,4.38,3.44,9.75,6.42,16.09,8.93,6.34,2.51,13.28,3.75,20.79,3.75s13.07-1.17,16.21-3.52c3.13-2.35,4.7-5.09,4.7-8.22s-1.26-5.52-3.75-7.17c-2.51-1.64-6.03-3.25-10.57-4.82l-9.86-3.29h-.03Z"/>
      <path class="st12" d="M821.9,439.23c9.4,0,18.13,1.22,26.19,3.64,8.06,2.43,14.99,6.15,20.79,11.16,5.79,5.01,10.33,11.31,13.63,18.92,3.29,7.59,4.94,16.64,4.94,27.13s-1.41,18.79-4.23,26.31c-2.82,7.52-6.81,13.82-11.99,18.91s-11.39,8.89-18.67,11.4-15.39,3.75-24.31,3.75c-6.74,0-13-1.02-18.79-3.05v39c-1.57.47-4.07.97-7.52,1.53-3.44.54-6.97.82-10.57.82s-6.54-.23-9.28-.7-5.05-1.41-6.93-2.82-3.29-3.33-4.23-5.76c-.94-2.43-1.41-5.6-1.41-9.51v-112.77c0-4.23.9-7.67,2.7-10.33,1.8-2.67,4.27-5.09,7.4-7.28,4.85-3.13,10.89-5.64,18.09-7.52s15.27-2.82,24.2-2.82h0ZM822.38,528.97c16.13,0,24.2-9.63,24.2-28.9,0-10.02-1.99-17.46-5.99-22.32-4-4.85-9.75-7.28-17.27-7.28-2.98,0-5.64.35-7.99,1.06-2.35.7-4.38,1.53-6.11,2.46v51.69c1.88.94,3.91,1.73,6.11,2.35,2.19.63,4.54.94,7.05.94h0Z"/>
      <path class="st11" d="M967.32,560.69c-9.24,0-17.82-1.29-25.72-3.88-7.91-2.58-14.8-6.46-20.68-11.62-5.88-5.17-10.49-11.67-13.86-19.49-3.37-7.83-5.05-16.99-5.05-27.49s1.68-19.23,5.05-26.66,7.79-13.54,13.28-18.32c5.48-4.78,11.74-8.3,18.79-10.57s14.25-3.4,21.61-3.4c8.3,0,15.86,1.26,22.67,3.75,6.81,2.51,12.69,5.95,17.62,10.33,4.94,4.38,8.77,9.63,11.51,15.74s4.12,12.76,4.12,19.97c0,5.32-1.49,9.4-4.47,12.22-2.98,2.82-7.13,4.62-12.45,5.41l-58.03,8.69c1.72,5.17,5.25,9.04,10.57,11.63,5.32,2.58,11.43,3.87,18.32,3.87,6.42,0,12.49-.82,18.2-2.46,5.72-1.64,10.38-3.56,13.98-5.76,2.51,1.57,4.62,3.75,6.34,6.58,1.73,2.82,2.58,5.79,2.58,8.93,0,7.05-3.29,12.3-9.86,15.74-5.01,2.67-10.65,4.47-16.91,5.41-6.27.94-12.14,1.41-17.62,1.41l.02-.02ZM960.74,468.36c-3.75,0-7.02.63-9.75,1.88-2.74,1.26-4.97,2.86-6.7,4.82s-3.02,4.15-3.87,6.58c-.86,2.43-1.37,4.89-1.53,7.4l40.17-6.58c-.47-3.13-2.2-6.26-5.17-9.4s-7.37-4.7-13.16-4.7Z"/>
      <path class="st18" d="M1082.9,439.23c8.46,0,16.17.86,23.14,2.58,6.96,1.73,12.92,4.35,17.85,7.87,4.94,3.52,8.73,7.99,11.4,13.39,2.67,5.41,3.99,11.78,3.99,19.14v52.63c0,4.07-1.14,7.4-3.4,9.98-2.27,2.58-4.97,4.82-8.1,6.7-10.18,6.11-24.51,9.16-43,9.16-8.31,0-15.78-.79-22.44-2.35-6.65-1.57-12.37-3.91-17.15-7.05s-8.46-7.12-11.04-11.99c-2.58-4.85-3.87-10.49-3.87-16.91,0-10.8,3.21-19.11,9.63-24.9s16.37-9.4,29.84-10.8l30.78-3.29v-1.64c0-4.54-1.99-7.79-5.99-9.75s-9.75-2.93-17.27-2.93c-5.95,0-11.74.63-17.38,1.88-5.64,1.26-10.73,2.82-15.27,4.7-2.04-1.41-3.75-3.56-5.17-6.46-1.41-2.9-2.11-5.91-2.11-9.04,0-4.07.98-7.32,2.93-9.75,1.96-2.43,4.97-4.5,9.04-6.23,4.54-1.72,9.91-2.98,16.09-3.75,6.19-.78,12.02-1.17,17.5-1.17v-.02ZM1084.78,531.55c2.67,0,5.6-.27,8.81-.82,3.21-.54,5.6-1.29,7.17-2.23v-18.79l-16.91,1.41c-4.38.32-7.99,1.26-10.8,2.82-2.82,1.57-4.23,3.91-4.23,7.05s1.21,5.68,3.64,7.64c2.43,1.96,6.54,2.93,12.34,2.93h0Z"/>
      <path class="st13" d="M1275.31,536.25c-.79,7.37-2.93,13-6.46,16.91s-8.66,5.88-15.39,5.88c-5.01,0-9.48-1.22-13.39-3.64-3.91-2.43-8.15-6.54-12.69-12.34l-23.26-29.13v42.75c-1.73.31-4.27.74-7.64,1.29-3.37.54-6.78.82-10.22.82s-6.54-.23-9.28-.7c-2.74-.47-5.05-1.41-6.93-2.82s-3.33-3.33-4.35-5.76-1.53-5.6-1.53-9.51v-136.03c1.72-.47,4.27-.97,7.64-1.53,3.37-.54,6.77-.82,10.22-.82s6.54.23,9.28.7c2.74.47,5.05,1.41,6.93,2.82s3.33,3.33,4.35,5.76c1.01,2.43,1.53,5.6,1.53,9.51v62.02l40.41-41.34c8.14,0,14.68,1.8,19.61,5.41,4.94,3.6,7.4,8.15,7.4,13.63,0,2.35-.39,4.51-1.17,6.46-.79,1.96-1.99,3.96-3.64,5.99s-3.75,4.19-6.34,6.46c-2.58,2.27-5.6,4.89-9.04,7.87l-13.63,11.75,37.59,37.59h0Z"/>
      <path class="st14" d="M1395.59,521.92c-2.04,1.73-4.66,3.09-7.87,4.11-3.21,1.02-6.93,1.53-11.16,1.53-5.64,0-10.3-.7-13.98-2.11s-6.08-3.84-7.17-7.28c-4.38-13.78-7.99-24.94-10.8-33.47-2.82-8.53-5.01-16.01-6.58-22.44h-1.17c-.47,9.24-.82,17.66-1.06,25.25-.23,7.6-.39,15-.47,22.2-.08,7.21-.23,14.49-.47,21.85-.23,7.36-.59,15.51-1.06,24.43-2.04.79-4.7,1.44-7.99,1.99-3.29.54-6.58.82-9.86.82-6.89,0-12.25-1.1-16.09-3.29-3.84-2.2-5.76-6.19-5.76-11.99l6.81-119.82c1.25-2.04,4-4.23,8.22-6.58,4.23-2.35,10.18-3.52,17.85-3.52,8.3,0,14.8,1.29,19.49,3.88,4.7,2.58,8.14,6.77,10.33,12.57,1.41,3.75,2.93,8.07,4.58,12.92,1.64,4.85,3.29,9.86,4.94,15.04,1.64,5.17,3.24,10.3,4.82,15.39,1.57,5.09,2.98,9.67,4.23,13.75h1.17c3.75-13.16,7.52-25.88,11.27-38.18,3.75-12.3,7.2-22.59,10.33-30.89,2.35-1.25,5.36-2.31,9.04-3.18,3.68-.85,7.79-1.29,12.34-1.29,7.67,0,13.94,1.14,18.79,3.41,4.85,2.27,7.67,5.52,8.46,9.75.63,3.13,1.29,7.95,1.99,14.45.7,6.5,1.44,13.82,2.23,21.97.78,8.15,1.57,16.76,2.35,25.84.78,9.09,1.53,17.82,2.23,26.19.7,8.38,1.29,16.06,1.76,23.02.47,6.97.78,12.34.94,16.09-2.67,1.57-5.45,2.7-8.34,3.4-2.9.7-6.62,1.06-11.16,1.06-5.95,0-10.96-1.02-15.04-3.05-4.07-2.04-6.27-6.03-6.58-11.99-.94-17.07-1.53-32.42-1.76-46.05s-.59-25.06-1.06-34.3h-1.17c-1.57,6.11-3.84,13.79-6.81,23.02-2.98,9.24-6.58,21.07-10.8,35.48h0Z"/>
      <path class="st17" d="M1528.33,439.23c8.46,0,16.17.86,23.14,2.58,6.97,1.73,12.92,4.35,17.85,7.87,4.94,3.52,8.72,7.99,11.39,13.39,2.67,5.41,4,11.78,4,19.14v52.63c0,4.07-1.14,7.4-3.4,9.98-2.27,2.58-4.97,4.82-8.1,6.7-10.18,6.11-24.51,9.16-42.99,9.16-8.31,0-15.78-.79-22.44-2.35-6.65-1.57-12.37-3.91-17.15-7.05-4.78-3.13-8.46-7.12-11.04-11.99-2.58-4.85-3.88-10.49-3.88-16.91,0-10.8,3.21-19.11,9.63-24.9s16.37-9.4,29.84-10.8l30.78-3.29v-1.64c0-4.54-1.99-7.79-5.99-9.75s-9.75-2.93-17.27-2.93c-5.95,0-11.74.63-17.38,1.88-5.64,1.26-10.73,2.82-15.27,4.7-2.04-1.41-3.75-3.56-5.17-6.46-1.41-2.9-2.11-5.91-2.11-9.04,0-4.07.98-7.32,2.93-9.75,1.96-2.43,4.97-4.5,9.04-6.23,4.54-1.72,9.91-2.98,16.09-3.75,6.19-.78,12.02-1.17,17.5-1.17v-.02ZM1530.21,531.55c2.67,0,5.6-.27,8.81-.82,3.21-.54,5.6-1.29,7.17-2.23v-18.79l-16.91,1.41c-4.38.32-7.99,1.26-10.8,2.82-2.82,1.57-4.23,3.91-4.23,7.05s1.21,5.68,3.64,7.64c2.43,1.96,6.54,2.93,12.34,2.93h0Z"/>
      <path class="st10" d="M1649.08,517.7c0,4.07,1.29,6.97,3.88,8.69,2.58,1.73,6.23,2.58,10.92,2.58,2.35,0,4.78-.19,7.28-.59,2.51-.39,4.7-.9,6.58-1.53,1.41,1.73,2.62,3.65,3.65,5.76,1.01,2.11,1.53,4.66,1.53,7.64,0,5.95-2.23,10.8-6.7,14.57-4.47,3.75-12.34,5.64-23.61,5.64-13.78,0-24.4-3.13-31.83-9.4-7.44-6.26-11.16-16.44-11.16-30.54v-100.55c1.72-.47,4.19-.98,7.4-1.53s6.61-.82,10.22-.82c6.89,0,12.25,1.22,16.09,3.65s5.76,7.56,5.76,15.39v15.04h30.78c.94,1.73,1.84,3.88,2.7,6.46s1.29,5.45,1.29,8.57c0,5.48-1.22,9.44-3.64,11.87-2.43,2.43-5.68,3.64-9.75,3.64h-21.38v35.48-.02Z"/>
      <path class="st19" d="M1762.08,560.69c-9.24,0-17.82-1.29-25.72-3.88-7.91-2.58-14.8-6.46-20.68-11.62-5.88-5.17-10.49-11.67-13.86-19.49s-5.05-16.99-5.05-27.49,1.68-19.23,5.05-26.66,7.79-13.54,13.28-18.32c5.48-4.78,11.74-8.3,18.79-10.57s14.25-3.4,21.61-3.4c8.3,0,15.86,1.26,22.67,3.75,6.81,2.51,12.69,5.95,17.62,10.33,4.94,4.38,8.77,9.63,11.51,15.74,2.74,6.11,4.12,12.76,4.12,19.97,0,5.32-1.49,9.4-4.47,12.22-2.98,2.82-7.12,4.62-12.45,5.41l-58.02,8.69c1.72,5.17,5.25,9.04,10.57,11.63,5.32,2.58,11.43,3.87,18.32,3.87,6.42,0,12.49-.82,18.2-2.46,5.72-1.64,10.38-3.56,13.98-5.76,2.51,1.57,4.62,3.75,6.34,6.58,1.72,2.82,2.58,5.79,2.58,8.93,0,7.05-3.29,12.3-9.86,15.74-5.01,2.67-10.65,4.47-16.91,5.41-6.26.94-12.14,1.41-17.62,1.41v-.02ZM1755.5,468.36c-3.75,0-7.01.63-9.75,1.88-2.74,1.26-4.98,2.86-6.7,4.82-1.73,1.96-3.02,4.15-3.88,6.58s-1.37,4.89-1.53,7.4l40.17-6.58c-.47-3.13-2.2-6.26-5.17-9.4s-7.36-4.7-13.16-4.7h0Z"/>
    </g>
  </g>
  <path class="st0" d="M323.99,481.68v19.19c0,3.92,4.54,15.2,6.62,18.97,19.31,34.97,70.66,33.57,89.37-1.11,2.6-4.81,6.39-15.93,6.39-21.23v-14.82l-1.01-1.01h-101.36Z"/>
  <path class="st0" d="M321.97,474.95h105.74c-.1-1.53-1.15-1.92-1.38-3.66-3.22-23.35,5.79-56.33-4.99-77.86-17.78-35.53-70.18-36.78-90.48-2.87-13.49,22.55-3.5,55.77-6.83,80.72-.27,1.99-1.06,2.17-2.05,3.67h0Z"/>
  <path class="st21" d="M573.22,485.35c-1.93-36.37-20.78-70.27-45.49-95.94-1,.51.14,1.63.48,2.22,14.46,25.55,18.82,46.73,13.9,76.13-11.47,68.49-76.34,122.85-141.33,139.19,3.52,11.41-10.23,13.55-18.52,14.12-7.27.49-31.71,1.28-33.29-8.45-1.77-10.92,7.42-12.76,16.13-13.09l-.1-16.75c-32.85-3.39-61.82-22.65-75.25-53.06-3.86-8.73-5.16-18.2-9.42-26.27-8.36-15.87,11.9-25.32,19.32-13.25,3.51,5.71.69,7.74.15,12.76-.78,7.17,7.45,23.81,11.66,29.99,34.36,50.42,117.14,40.6,135.31-18.42,2.15-6.96,1.77-7.79,1.21-14.39-1.92-22.83,27.23-18.15,22.39.27-.86,3.28-3.24,3.95-4.07,6.03-.95,2.36-1.01,6.63-1.86,9.59-11.02,38.03-40.68,61.58-79.71,66.77l-.1,16.75c5.03,0,12.24.46,14.92,5.31,24.91-11.7,47.57-30.32,66.25-50.42,53.99-58.09,91.61-160.62.11-204.2-91.82-43.73-206.8-6.04-264.34,74.66-41.78,58.6-38.26,134.18,14.68,184.43,1.82,1.73,9.99,7.58,10.08,9.39.13,2.72-7.89,19.18-9.72,22.6-10.82,20.32-25.87,39.08-41.44,55.88,45.02-3.48,88.23-16.09,128.37-36.36,117.36,36.34,276.97-38.6,269.71-175.48h0ZM426.37,497.51c0,5.3-3.79,16.42-6.39,21.23-18.71,34.69-70.06,36.09-89.37,1.11-2.08-3.77-6.62-15.05-6.62-18.97v-19.19h101.36l1.01,1.01v14.82h0ZM330.86,390.56c20.3-33.92,72.71-32.66,90.48,2.87,10.77,21.53,1.77,54.5,4.99,77.86.24,1.75,1.28,2.14,1.38,3.66h-105.74c.99-1.5,1.79-1.68,2.05-3.67,3.33-24.96-6.66-58.17,6.83-80.72h0ZM308.35,393.85c.23-1.92,1.82-3.91,3.97-4.32,3.56-.67,6.42,1.34,6.65,4.59v65.06c-1.25,5.79-10.04,5.46-10.64-.56v-64.77h.02ZM281.33,383.67c.34-1.84,1.89-3.68,3.98-4.03,3.89-.65,6.52,1.42,6.96,4.87v81.74c-.77,6.41-10.3,6.53-10.95,0v-82.6h0ZM238.53,443.03c-.85,5.7-9.78,5.55-10.58.03l.03-32.78c.4-1.78,1.9-3.45,3.95-3.77,3.55-.55,6.13,1.09,6.64,4.32l-.03,32.22h0ZM265.25,459.17c-.49,3.93-5.8,5.54-8.94,2.87-.91-.77-1.66-2.27-1.68-3.43v-65.05c1.03-5.55,9.55-5.59,10.63,0v65.62h0Z"/>
  <path class="st20" d="M339.3,406.51c3.07-.59,6.05.9,6.65,3.75l-.03,33.36c-2.44,5.63-10.04,4.69-10.6-1.67-.85-9.81.66-20.63.02-30.55.17-2.1,1.5-4.42,3.96-4.89Z"/>
</svg>