<?xml version="1.0" encoding="UTF-8"?>
<svg id="Layer_1" xmlns="http://www.w3.org/2000/svg" xmlns:xlink="http://www.w3.org/1999/xlink" version="1.1" viewBox="0 0 2000 1000">
  <!-- Generator: Adobe Illustrator 29.3.0, SVG Export Plug-In . SVG Version: 2.1.0 Build 146)  -->
  <defs>
    <style>
      .st0 {
        fill: none;
      }

      .st1 {
        fill: url(#linear-gradient2);
      }

      .st2 {
        fill: url(#linear-gradient1);
      }

      .st3 {
        fill: url(#linear-gradient3);
      }

      .st4 {
        fill: url(#linear-gradient);
      }
    </style>
    <linearGradient id="linear-gradient" x1="1164.91" y1="105.14" x2="1290.07" y2="105.14" gradientUnits="userSpaceOnUse">
      <stop offset="0" stop-color="#fff"/>
      <stop offset=".33" stop-color="#fcfcfc"/>
      <stop offset=".55" stop-color="#f3f3f3"/>
      <stop offset=".73" stop-color="#e4e4e4"/>
      <stop offset=".9" stop-color="#cfcfcf"/>
      <stop offset="1" stop-color="#bebebe"/>
    </linearGradient>
    <linearGradient id="linear-gradient1" x1="1288.36" y1="195.57" x2="1392.51" y2="195.57" xlink:href="#linear-gradient"/>
    <linearGradient id="linear-gradient2" x1="459.34" y1="510.15" x2="1355.43" y2="510.15" xlink:href="#linear-gradient"/>
    <linearGradient id="linear-gradient3" x1="821.91" y1="314.03" x2="846.29" y2="314.03" xlink:href="#linear-gradient"/>
  </defs>
  <path class="st4" d="M1290.01,108.18c.44,2.18-1.7,1.57-3.26,1.97-11.83,3.01-33.33,4.72-42.72,13.07-8.43,7.49-12.94,27.98-15.42,38.84-.84,3.69,1,9.35-3.39,10.91-1.5-12.59-5.86-37.31-14.26-46.8-10.91-12.31-31.83-11.95-46.06-17.26,20-5.64,42.64-4.93,51.98-26.4,6.15-14.13,7.7-30.01,9.07-45.2,3.85,16.49,5.58,50.48,21.77,59.63,11.8,6.67,28.89,9.34,42.27,11.24Z"/>
  <path class="st2" d="M1392.51,195.6c-.61,2.98-3.09,2.57-5.29,2.99-36.17,6.83-44.52,13.88-47.48,52.76-2.98-.61-2.58-3.08-2.99-5.28-2.73-14.58-4.24-32.69-18.59-40.19-8.32-4.35-20.2-7.08-29.65-7.28-1.25-4.72,5.47-2.77,9.12-3.68,8-1.99,23.17-6.04,28.58-12.11,9.24-10.39,8.65-30.41,12.79-42.99,3.66,18.36,3.57,40.75,23.02,49.34,8.95,3.95,20.68,6.03,30.49,6.45Z"/>
  <path class="st0" d="M797.17,436.73v42.95c0,8.78,10.16,34.03,14.81,42.46,43.21,78.27,158.13,75.14,199.99-2.49,5.81-10.77,14.29-35.65,14.29-47.5v-33.16l-2.26-2.26h-226.83Z"/>
  <path class="st0" d="M792.65,421.66h236.63c-.22-3.42-2.56-4.29-3.1-8.21-7.2-52.26,12.95-126.05-11.15-174.23-39.78-79.51-157.06-82.33-202.49-6.42-30.2,50.47-7.85,124.79-15.29,180.64-.59,4.45-2.38,4.85-4.6,8.21Z"/>
  <path class="st1" d="M1354.9,444.95c-4.32-81.38-46.49-157.24-101.81-214.69-2.23,1.15.32,3.64,1.07,4.96,32.36,57.16,42.12,104.59,31.11,170.38-25.65,153.27-170.82,274.92-316.28,311.5,7.88,25.53-22.91,30.33-41.46,31.61-16.26,1.12-70.97,2.86-74.5-18.91-3.96-24.44,16.59-28.56,36.09-29.3l-.22-37.47c-73.51-7.57-138.35-50.69-168.38-118.74-8.62-19.54-11.56-40.72-21.08-58.8-18.7-35.52,26.63-56.65,43.22-29.66,7.86,12.78,1.55,17.33.33,28.54-1.74,16.06,16.67,53.29,26.09,67.11,76.9,112.84,262.16,90.85,302.82-41.22,4.8-15.59,3.95-17.42,2.71-32.2-4.29-51.1,60.94-40.63,50.09.6-1.93,7.34-7.26,8.84-9.12,13.48-2.13,5.28-2.26,14.84-4.17,21.45-24.66,85.1-91.03,137.81-178.38,149.44l-.22,37.47c11.26,0,27.4,1.04,33.39,11.87,55.75-26.17,106.45-67.86,148.26-112.84,120.83-129.99,205-359.44.25-456.96-205.47-97.87-462.78-13.53-591.56,167.08-93.5,131.14-85.62,300.27,32.86,412.71,4.07,3.86,22.36,16.97,22.56,21.01.29,6.08-17.65,42.9-21.75,50.59-24.22,45.46-57.9,87.46-92.72,125.05,100.75-7.78,197.44-36.02,287.26-81.36,262.64,81.32,619.82-86.39,603.56-392.71ZM1026.26,472.15c0,11.85-8.49,36.74-14.29,47.5-41.86,77.63-156.78,80.76-199.99,2.49-4.65-8.43-14.81-33.68-14.81-42.46v-42.95h226.83l2.26,2.26v33.16ZM812.54,232.81c45.42-75.91,162.71-73.09,202.49,6.42,24.1,48.18,3.95,121.97,11.15,174.23.54,3.91,2.87,4.79,3.1,8.21h-236.63c2.22-3.36,4.01-3.76,4.6-8.21,7.44-55.85-14.91-130.18,15.29-180.64ZM762.17,240.19c.5-4.29,4.08-8.76,8.88-9.66,7.97-1.5,14.36,3,14.88,10.27v145.59c-2.79,12.96-22.47,12.22-23.79-1.26l.03-144.95ZM701.7,217.39c.77-4.11,4.22-8.22,8.91-9.01,8.7-1.46,14.6,3.18,15.57,10.9l-.02,182.92c-1.71,14.36-23.03,14.6-24.47.02v-184.83ZM605.91,350.25c-1.92,12.75-21.9,12.42-23.68.06l.06-73.36c.91-3.98,4.26-7.74,8.83-8.44,7.94-1.23,13.74,2.44,14.85,9.65l-.06,72.09ZM665.71,386.37c-1.11,8.8-12.97,12.4-20.01,6.42-2.03-1.72-3.72-5.09-3.76-7.66l.03-145.58c2.29-12.42,21.34-12.51,23.75-.01l-.02,146.83Z"/>
  <path class="st3" d="M831.42,268.49c6.87-1.31,13.54,2.01,14.87,8.38l-.06,74.65c-5.45,12.61-22.48,10.49-23.72-3.73-1.91-21.96,1.48-46.17.03-68.36.38-4.7,3.36-9.88,8.88-10.93Z"/>
</svg>