<svg width="180" height="48" viewBox="0 0 180 48" fill="none" xmlns="http://www.w3.org/2000/svg">
  <defs>
    <linearGradient id="gradient1" x1="0%" y1="0%" x2="100%" y2="100%">
      <stop offset="0%" style="stop-color:#10b981;stop-opacity:1" />
      <stop offset="50%" style="stop-color:#3b82f6;stop-opacity:1" />
      <stop offset="100%" style="stop-color:#8b5cf6;stop-opacity:1" />
    </linearGradient>
  </defs>
  
  <!-- Chat bubble icon with gradient -->
  <path d="M8 10C8 7.79086 9.79086 6 12 6H28C30.2091 6 32 7.79086 32 10V26C32 28.2091 30.2091 30 28 30H16L8 38V10Z" fill="url(#gradient1)"/>
  <path d="M14 18C14 15.7909 15.7909 14 18 14H34C36.2091 14 38 15.7909 38 18V34C38 36.2091 36.2091 38 34 38H22L14 46V18Z" fill="url(#gradient1)" opacity="0.7"/>
  
  <!-- Text -->
  <text x="50" y="32" font-family="Arial, sans-serif" font-size="24" font-weight="700" fill="#115e59">Speak</text>
  <text x="122" y="32" font-family="Arial, sans-serif" font-size="24" font-weight="700" fill="#4f46e5">Mate</text>
</svg>
